Patient4_TMGait_0pt8_01_left_27_EMG.mot
version=1
nRows=30
nColumns=33
inDegrees=no
endheader
time	1LAddLong	2LGlutMax	3LGlutMed	4LIliopsoas	5LSemiMemb	6LBicFemLong	7LRecFem	8LVastMed	9LVastLat	10LGasMed	11LTibAnt	12lTibPost	13LPeroneusLong	14LSol	15LExtDigLong	16LFlexDigLong	17RAddLong	18RGlutMax	19RGlutMed	20RIliopsoas	21RSemiMemb	22RBicFemLong	23RRecFem	24RVastMed	25RVastLat	26RGasMed	27RTibAnt	28RTibPost	29RPeroneusLong	30RSol	31RExtDigLong	32RFlexDigLong
29.63	0.003967	0.69839	0.010071	-0.003662	-0.025482	0.03891	0.30121	0.014496	0.25314	0.030518	0.014801	0.014648	-0.08728	-0.007477	0.5571	-0.006561	0.008087	0.58838	0.11719	0.1001	-0.11643	-0.046844	-0.058746	0.13153	-0.38361	-0.010986	0.21088	0.015259	-1.9507	-0.088043	0.000305	-0.00946
29.631	-0.083008	0.6459	0.031891	-0.007172	-0.013733	0.035248	0.31601	0.019073	0.25711	0.054016	-0.070343	0.016479	-0.084686	-0.1709	0.36697	-0.004578	0.006561	0.59952	-0.15228	0.098572	-0.13046	-0.2536	-0.071564	0.018768	-0.23086	0.01709	0.27298	0.081024	-1.8407	0.099182	0	-0.01297
29.632	0.056	0.72174	0.060272	0.001678	-0.015411	0.004425	0.34256	0.019226	0.25864	0.050354	0.04837	0.02243	-0.042725	-0.12405	0.032806	0.016632	0.015411	0.61935	0.071106	0.006256	-0.13489	-0.40955	-0.060272	-0.018005	-0.18036	0.016022	0.30075	-0.002747	-1.7256	-0.080566	0.000763	-0.012817
29.633	0.027466	0.75333	0.017395	0.002289	-0.018311	-0.016022	0.33142	0.014801	0.25772	0.023041	0.14511	0.03067	0.00473	-0.00473	-0.11032	0.012665	0.003052	0.82901	0.48889	-0.1796	-0.12802	-0.51559	-0.11856	0.041351	0.085754	0.01709	-0.14313	-0.042267	-0.005493	-0.16022	-0.001068	-0.017548
29.634	0.011139	0.74478	0.040283	0.015106	-0.022583	-0.016022	0.31418	0.018921	0.25467	-0.001831	0.1561	0.03067	0.005188	0.031281	-0.072784	0.012207	-0.00946	0.86472	0.10284	-0.13412	-0.12848	-0.4158	-0.077667	-0.021515	0.10712	0.015411	-0.25925	-0.023346	0.049286	-0.23605	0.001221	-0.010376
29.635	0.004883	0.72433	0.060272	0.019226	-0.025177	-0.038757	0.30594	0.00885	0.25757	-0.039978	0.071259	0.021973	0.044556	0.010986	-0.23209	0.01709	0.000916	0.8847	-0.18906	-0.11627	-0.13855	-0.12863	-0.023651	-0.02243	0.061035	0.02243	-0.43701	-0.00885	0.93246	-0.41367	0.000763	-0.009613
29.636	0.001526	0.75485	0.034027	0.016937	-0.009308	-0.051575	0.31158	0.01358	0.26306	-0.038605	0.070496	0.021362	0.12299	0.072327	0.091705	0.003967	0.011292	0.97656	0.36346	-0.042114	-0.13962	-0.13336	0.01358	-0.054932	0.094757	0.018921	-0.55023	0.001068	0.33524	-0.41351	-0.002747	-0.009308
29.637	0.010223	0.75058	0.002747	0.016174	0.006409	-0.064545	0.30456	0.009003	0.25452	-0.009766	0.14023	0.026245	0.084839	0.020294	-0.19196	0.003662	0.016022	0.98709	0.54611	-0.019989	-0.088959	-0.16785	0.078278	-0.041351	0.093079	0.002899	-0.17395	-0.000763	0.51971	-0.37689	0.003052	-0.001373
29.638	0.019836	0.74493	0.000458	0.00824	0.005341	-0.060272	0.29495	0.008698	0.24841	0.013885	0.25589	0.023651	0.007477	0.016174	-0.020447	0.018311	-0.003815	1.088	0.45685	-0.077972	0.011292	-0.02533	0.03006	0.009613	0.11078	-0.010986	0.10254	-0.010223	0.1622	-0.17944	0.000305	-0.005341
29.639	0.009155	0.72388	-0.007477	-0.003662	-0.002441	-0.042419	0.30106	0.013275	0.25726	-0.020752	0.19959	0.027008	-0.014648	0.041962	0.17181	0.03479	0.001068	1.0117	1.3495	-0.10681	0.057526	0.000153	0.073395	0.065002	0.10376	-0.019989	0.20035	-0.007935	-0.57571	0.11322	-0.000153	-0.004272
29.64	0.006409	0.69733	0.005951	0.000763	-0.007324	-0.050201	0.27603	0.001831	0.2478	-0.047455	-0.000305	0.026093	-0.042114	0.06546	0.29755	0.032349	-0.010986	0.92972	1.3588	-0.095673	0.069122	-0.1622	0.037842	0.07019	0.10284	-0.027618	0.39597	-0.01297	-0.33157	0.14618	0.000153	-0.004578
29.641	0.010529	0.62393	-0.008392	-0.000458	-0.00885	-0.047913	0.2504	0.00351	0.23651	-0.034485	-0.29327	0.025787	0.068817	0.092926	-0.11597	0.016479	-0.02121	0.85205	0.61356	-0.11078	0.067139	-0.10391	-0.019379	-0.051575	0.1535	-0.011139	0.36758	-0.010986	0.34164	0.098724	0.001526	-0.002899
29.642	0.009155	0.62195	-0.018463	0.010529	-0.012512	-0.060425	0.2652	0.009003	0.2417	-0.006866	-0.1886	0.023956	0.046539	0.031128	-0.22812	0.032043	-0.023651	0.7016	-0.45273	0.020142	0.018005	0.08728	-0.091248	-0.080109	0.18585	0.031891	0.029297	-0.012054	1.2041	0.18463	-0.00473	0.001678
29.643	0.011749	0.62424	-0.014648	0.014038	-0.011444	-0.061035	0.24094	0.008392	0.23682	-0.006714	-0.21133	0.012817	0.054321	-0.016937	-0.21408	0.038757	-0.042419	0.60715	-0.67978	0.0383	-0.022125	0.55328	-0.1828	0.003357	0.2359	0.021057	0.058441	-0.015106	1.9627	0.13672	0	-0.00061
29.644	0.006409	0.60135	-0.020294	0.014801	-0.006561	-0.070496	0.23422	0.007324	0.22903	-0.010376	-0.13641	0.023193	0.068512	-0.096283	-0.19684	0.039673	-0.015869	0.55573	-0.51071	-0.031586	-0.08667	0.54825	-0.23758	-0.10437	0.18341	0.007782	0.22232	0.002899	1.8736	-0.16129	-0.002441	-0.010986
29.645	0.003357	0.56244	-0.017548	0.018463	-0.003815	-0.080261	0.21851	0.00473	0.23438	-0.005951	-0.038147	0.025787	0.027161	-0.16098	-0.017853	0.029755	0.001526	0.5748	-0.31815	0.10223	-0.10376	0.35339	-0.23041	-0.1976	0.13901	0.003967	0.22934	0.012054	-1.5118	-0.13397	-0.000916	-0.014343
29.646	0.00824	0.53513	-0.024567	0.011749	-0.001831	-0.088959	0.20767	0.002594	0.2359	-0.036926	-0.00412	0.022736	0.054474	-0.057526	0.084991	0.038452	-0.005188	0.57526	-0.19836	0.14389	-0.07431	0.29053	0.074463	-0.23315	0.096436	0.001221	0.23346	0.001373	-1.7532	-0.11795	0.003204	-0.000763
29.647	0.011139	0.5368	-0.026245	-0.009613	-0.007935	-0.1001	0.18219	0.003357	0.22751	-0.034637	-0.011902	0.017242	0.021057	-0.007935	0.17716	0.037537	-0.000153	0.61096	-0.004578	0.10696	0.003357	0.233	0.25162	-0.24887	0.033722	-0.001831	0.012054	-0.00351	-0.80566	-0.09903	0.002441	-0.003662
29.648	0.009918	0.5513	-0.034485	-0.009766	-0.013733	-0.085297	0.17746	0.003967	0.21744	-0.007935	-0.053253	0.022125	0.025635	-0.037842	0.51239	0.034637	-0.011902	0.61905	0.045166	0.072784	0.034027	-0.035858	0.24292	-0.1799	0.026703	0.006714	-0.26062	-0.002289	0.62118	0.17777	0.006714	-0.005188
29.649	0.006714	0.52963	-0.05188	-0.005798	-0.016632	-0.083313	0.16922	0.006256	0.21576	0.005341	-0.059967	0.020294	0.045166	-0.06012	-0.000305	0.036621	-0.027008	0.6955	0.1416	0.07019	0.029602	-0.22781	0.055695	0.009003	0.042419	-0.016174	0.16357	-0.012665	-2.4803	-0.020752	-0.00351	-0.017548
29.65	-0.015259	0.51941	-0.045013	0.012512	-0.037079	-0.074005	0.17761	0.00412	0.20081	-0.009918	0.011139	0.017242	0.018616	-0.056763	0.10269	0.028229	-0.026093	0.63126	-0.19287	0.11368	0.008087	-0.71442	0.09201	0.21545	0.074005	0.000305	0.36179	-0.008698	-1.3225	-0.13931	0.001068	-0.006256
29.651	0.023804	0.50873	-0.055542	0.025024	-0.032806	-0.082092	0.16541	0.000458	0.19287	-0.041504	0.070343	0.005798	0.032043	-0.021973	-0.27969	0.031738	0.00061	0.67169	-0.55054	0.12451	-0.068359	-0.80505	-0.044861	0.20615	0.098877	-0.0177	0.34622	-0.014191	0.53162	-0.13534	-0.001373	-0.014343
29.652	0.033722	0.4985	-0.09613	0.016479	0.006256	-0.094604	0.1738	0.001526	0.20096	-0.018616	-0.054779	0.022278	0.016632	0.024872	0.70328	0.030212	0.006866	0.70984	-0.76233	0.18082	-0.10361	-0.18234	0.023651	0.19379	0.28717	0.00061	0.056152	-0.01358	1.0294	-0.080109	0.002594	-0.00885
29.653	0.001373	0.46783	-0.11734	0.009766	0.036011	-0.074615	0.13336	0.003357	0.19577	-0.016022	-0.11536	0.011292	-0.041504	-0.00824	-0.41992	0.029297	0.012207	0.73349	-0.84015	0.23499	-0.1297	0.2977	0.33356	0.43106	0.3125	-0.012054	-0.31433	-0.024414	0.30594	0.069122	-0.004425	-0.005951
29.654	0.019684	0.47348	-0.020905	0.009766	0.025482	-0.062408	0.11231	0.001678	0.19302	-0.000153	-0.026093	0.011749	-0.015717	-0.039215	-0.40619	0.031281	0.022125	0.62622	-0.34637	0.14679	-0.12924	0.33707	0.62088	0.01358	0.064087	-0.096893	-0.25543	-0.02533	0.3389	0.11917	-0.000305	-0.014496
29.655	0.016174	0.50003	0.041656	-0.010529	0.018616	-0.06424	0.11917	0.004578	0.18402	-0.027466	0.14877	0.010681	-0.027924	-0.015106	-0.13794	0.033417	0.015564	0.59448	0.72189	-0.050659	-0.10757	0.12665	0.27405	-0.44449	-0.21027	-0.080566	-0.31204	0.087433	0.30212	-0.055695	0.001221	-0.010223
29.656	0.013733	0.48233	0.061798	-0.001526	0.011902	-0.048981	0.11871	0.005493	0.17624	-0.092163	0.14038	0.017395	0.10498	0.020447	-0.26382	0.029297	-0.003357	0.50278	1.1107	-0.1683	-0.075836	0.006561	-0.44434	-0.37552	-0.14084	0.011749	-0.09201	0.025635	0.59387	-0.23987	0.003052	-0.00824
29.657	0.01358	0.47211	0.010223	0.004883	0.010376	-0.079041	0.13504	0.002289	0.18204	-0.057983	0.095062	0.009613	0.096436	0.072021	-0.091095	0.035553	-0.010681	0.35919	1.0515	-0.27634	-0.073853	-0.014954	-0.45044	-0.066376	0.18356	0.003815	0.051575	-0.007019	0.20371	-0.33752	0.003052	-0.009003
29.658	0.012054	0.48416	-0.049286	0.01297	0.014038	-0.066681	0.14465	0.002747	0.17792	0.019379	0.19821	0.011292	-0.037842	0.080414	-0.016174	0.021057	0.011444	0.35339	0.85907	-0.2095	-0.091248	-0.059509	-0.21484	-0.093689	0.13214	0.002136	-0.073547	-0.103	-0.43961	0.005646	0	-0.001526
29.659	0.008087	0.51315	-0.058441	0.017242	0.016174	-0.062714	0.14038	0.001526	0.1593	0.026245	-0.04303	0.012665	-0.031433	0.074615	0.027618	0.014038	0.002747	0.42511	1.0219	-0.25482	-0.085144	-0.096893	-0.36743	-0.085602	0.086517	0.033875	0.17593	-0.009003	0.086212	0.4602	0.00061	0.000763
